# xmcd
# 
# Track frame offsets:
#     150
#     13962
#     31258
#     45888
#     60373
#     78768
#     95139
#     110193
#     129870
#     150883
#     166665
#     181327
#     193527
#     209777
# 
# Disc length: 3003
# 
# Revision: 0
# Processed by: cddbd v1.5.2PL0 Copyright (c) Steve Scherf et al.
# Submitted via: fre:ac v1.0.31
# 
DISCID=a90bb90e
DTITLE=ビリー・バンバン - スーパー・ベスト
DYEAR=2010
DGENRE=Folk
TTITLE0=さよならをするために
TTITLE1=白いブランコ
TTITLE2=れんげ草
TTITLE3=ミドリーヌ
TTITLE4=やさしい雨
TTITLE5=目覚めた時には晴れていた
TTITLE6=愛すべき僕たち
TTITLE7=子供たちをよろしく
TTITLE8=白い馬に乗って
TTITLE9=君のいる風景
TTITLE10=すぎ去った日々
TTITLE11=野バラの咲いてた道
TTITLE12=天使は踊る
TTITLE13=思い出を作ろう
EXTD=
EXTT0=
EXTT1=
EXTT2=
EXTT3=
EXTT4=
EXTT5=
EXTT6=
EXTT7=
EXTT8=
EXTT9=
EXTT10=
EXTT11=
EXTT12=
EXTT13=
PLAYORDER=
